<svg id="Layer_1" data-name="Layer 1" xmlns="http://www.w3.org/2000/svg" viewBox="0 0 32 32"><defs><style>.cls-1{fill:#00243d;}</style></defs><title>Maersk_Icons_Globe_20190627</title><path class="cls-1" d="M16,8a8,8,0,1,0,8,8A8.01,8.01,0,0,0,16,8ZM11.23,21.11a6.9845,6.9845,0,0,1-1.96-3.2l.01.01,1.16-.78,1.5,1.51ZM16,23a6.965,6.965,0,0,1-3.92-1.21l.82-2.87a1.0054,1.0054,0,0,0-.25-.98l-1.51-1.5a.9988.9988,0,0,0-1.26-.13l-.82.55A6.1058,6.1058,0,0,1,9,16a7,7,0,1,1,7,7Z"/><path class="cls-1" d="M20.85,13.39l-1.1-1.1a.99.99,0,0,0-.71-.29H15.06a1.0142,1.0142,0,0,0-.9.55l-.66,1.33a1.007,1.007,0,0,0,.34,1.28l.97.65.86,3.43a.9949.9949,0,0,0,.97.76h.75a1,1,0,0,0,.95-.68l.82-2.47.66-.33a.8976.8976,0,0,0,.45-.45l.77-1.52A1.0205,1.0205,0,0,0,20.85,13.39Zm-1.47,2.24-.67.33a.9875.9875,0,0,0-.5.58L17.39,19h-.75l-.86-3.43a1.033,1.033,0,0,0-.41-.59l-.98-.65L15.06,13h3.98l1.1,1.1Z"/></svg>