<svg id="Layer_1" data-name="Layer 1" xmlns="http://www.w3.org/2000/svg" viewBox="0 0 32 32"><defs><style>.cls-1{fill:#00243d;}</style></defs><title>Maersk_Icons_Import_20190627</title><path class="cls-1" d="M23,18v3a1.0009,1.0009,0,0,1-1,1H10a1.0009,1.0009,0,0,1-1-1V18H8v3a2.0023,2.0023,0,0,0,2,2H22a2.0023,2.0023,0,0,0,2-2V18Z"/><path class="cls-1" d="M15.24,20h1.52a.9965.9965,0,0,0,.7807-.375l2.85-3.5625-.7812-.625L16.76,19H16.5V9h-1V19h-.2593l-2.85-3.5625-.7812.625L14.46,19.625A.9948.9948,0,0,0,15.24,20Z"/></svg>