<svg id="Layer_1" data-name="Layer 1" xmlns="http://www.w3.org/2000/svg" viewBox="0 0 32 32"><defs><style>.cls-1{fill:#00243d;}</style></defs><title>Maersk_Icons_Printer_20190627</title><path class="cls-1" d="M24,13H22V10a1.0029,1.0029,0,0,0-1-1H11a1.0029,1.0029,0,0,0-1,1v3H8a1.0029,1.0029,0,0,0-1,1v5a1.0029,1.0029,0,0,0,1,1h2v2a1.0029,1.0029,0,0,0,1,1H21a1.0029,1.0029,0,0,0,1-1V20h2a1.0029,1.0029,0,0,0,1-1V14A1.0029,1.0029,0,0,0,24,13ZM11,10H21v3H11ZM21,22H11V17H21Zm3-3H22V17a1.0029,1.0029,0,0,0-1-1H11a1.0029,1.0029,0,0,0-1,1v2H8V14H24Z"/><rect class="cls-1" x="13" y="19" width="6" height="1"/></svg>