<svg id="Layer_1" data-name="Layer 1" xmlns="http://www.w3.org/2000/svg" viewBox="0 0 32 32"><defs><style>.cls-1{fill:#00243d;}</style></defs><title>Maersk_Icons_Link_20190627</title><path class="cls-1" d="M16.8535,14.1465l-.707.707,1.4394,1.4395a1.0012,1.0012,0,0,1,0,1.414L13.6133,21.68a1.0256,1.0256,0,0,1-1.4141,0L10.32,19.8008a1.0015,1.0015,0,0,1,0-1.4141l2.0332-2.0332-.707-.707L9.6133,17.68a2.0028,2.0028,0,0,0,0,2.8281l1.8789,1.8789a1.9991,1.9991,0,0,0,2.8281,0l3.9727-3.9726a2.0029,2.0029,0,0,0,0-2.8282Z"/><path class="cls-1" d="M22.3867,11.4922,20.5078,9.6133a2.047,2.047,0,0,0-2.8281,0L13.707,13.5859a2.0029,2.0029,0,0,0,0,2.8282l1.4395,1.4394.707-.707L14.4141,15.707a1.0012,1.0012,0,0,1,0-1.414L18.3867,10.32a1.0256,1.0256,0,0,1,1.4141,0L21.68,12.1992a1.0015,1.0015,0,0,1,0,1.4141l-2.0332,2.0332.707.707L22.3867,14.32A2.0028,2.0028,0,0,0,22.3867,11.4922Z"/></svg>