<svg id="Layer_1" data-name="Layer 1" xmlns="http://www.w3.org/2000/svg" viewBox="0 0 32 32"><defs><style>.cls-1{fill:#00243d;}</style></defs><title>Maersk_Icons_Truck2_20190627</title><path class="cls-1" d="M22.7812,10.5508,21.04,8.375A.9933.9933,0,0,0,20.26,8H11.74a.9968.9968,0,0,0-.7812.375L9.2168,10.5527A1.0124,1.0124,0,0,0,9,11.1758V23a1.0006,1.0006,0,0,0,1,1h2a1.0006,1.0006,0,0,0,1-1V21h6v2a1.0006,1.0006,0,0,0,1,1h2a1.0006,1.0006,0,0,0,1-1V11.1758A1.0116,1.0116,0,0,0,22.7812,10.5508ZM12.5,20H10V15H22v5H12.5ZM11.74,9h8.52L22,11.1758V14H10V11.1758ZM12,23H10V21h2Zm10,0H20V21h2Z"/><rect class="cls-1" x="12" y="17" width="2" height="1"/><rect class="cls-1" x="18" y="17" width="2" height="1"/></svg>