<svg id="Layer_1" data-name="Layer 1" xmlns="http://www.w3.org/2000/svg" viewBox="0 0 32 32"><defs><style>.cls-1{fill:#00243d;}</style></defs><title>Maersk_Icons_Truck1_20190627</title><path class="cls-1" d="M25.7832,13.5527l-.002-.0019L24.04,11.375A.9933.9933,0,0,0,23.26,11H19.5a.5.5,0,0,0-.5.5V16H17V10a1.0006,1.0006,0,0,0-1-1H7a1.0006,1.0006,0,0,0-1,1V20a1.0006,1.0006,0,0,0,1,1h1.55a2.5,2.5,0,0,0,4.899,0h5.101a2.5,2.5,0,0,0,4.899,0H25a1.0006,1.0006,0,0,0,1-1V14.1758A1.0124,1.0124,0,0,0,25.7832,13.5527ZM20,12h3.26L25,14.1758V16H20ZM7,10h9v6H7Zm4,12a1.5,1.5,0,1,1,1.5-1.5A1.5017,1.5017,0,0,1,11,22Zm10,0a1.5,1.5,0,1,1,1.5-1.5A1.5017,1.5017,0,0,1,21,22Zm4-2H23.45a2.5,2.5,0,0,0-4.899,0H13.45a2.5,2.5,0,0,0-4.899,0H7V17H25Z"/></svg>