<svg id="Layer_1" data-name="Layer 1" xmlns="http://www.w3.org/2000/svg" viewBox="0 0 32 32"><defs><style>.cls-1{fill:#00243d;}</style></defs><title>Maersk_Icons_Containers_20190627</title><rect class="cls-1" x="12.5" y="18" width="1" height="2.5"/><rect class="cls-1" x="15.5" y="18" width="1" height="2.5"/><rect class="cls-1" x="18.5" y="18" width="1" height="2.5"/><path class="cls-1" d="M22,9H10a1.0029,1.0029,0,0,0-1,1V22a1.0029,1.0029,0,0,0,1,1H22a1.0029,1.0029,0,0,0,1-1V10A1.0029,1.0029,0,0,0,22,9Zm0,13H10V16.5H22Zm0-6.5H10V10H22Z"/><rect class="cls-1" x="12.5" y="11.5" width="1" height="2.5"/><rect class="cls-1" x="15.5" y="11.5" width="1" height="2.5"/><rect class="cls-1" x="18.5" y="11.5" width="1" height="2.5"/></svg>