<svg id="Layer_1" data-name="Layer 1" xmlns="http://www.w3.org/2000/svg" viewBox="0 0 32 32"><defs><style>.cls-1{fill:#00243d;}</style></defs><title>Maersk_Icons_People_20190627</title><path class="cls-1" d="M23,10H21a1.0029,1.0029,0,0,0-1,1v2.5a1.0029,1.0029,0,0,0,1,1h2a1.0029,1.0029,0,0,0,1-1V11A1.0029,1.0029,0,0,0,23,10Zm0,3.5H21V11h2Z"/><path class="cls-1" d="M23.5,16h-3a2.0027,2.0027,0,0,0-2,2v2.293a.9951.9951,0,0,0,.293.707l.707.707V24a1.0006,1.0006,0,0,0,1,1h3a1.0006,1.0006,0,0,0,1-1V21.707L25.207,21a.9951.9951,0,0,0,.293-.707V18A2.0027,2.0027,0,0,0,23.5,16Zm1,4.293L23.793,21a.9951.9951,0,0,0-.293.707V24h-3V21.707A.9951.9951,0,0,0,20.207,21l-.707-.707V18a1.0006,1.0006,0,0,1,1-1h3a1.0006,1.0006,0,0,1,1,1Z"/><path class="cls-1" d="M12.5,7h-2a1.0029,1.0029,0,0,0-1,1v2.5a1.0029,1.0029,0,0,0,1,1h2a1.0029,1.0029,0,0,0,1-1V8A1.0029,1.0029,0,0,0,12.5,7Zm0,3.5h-2V8h2Z"/><path class="cls-1" d="M14.5,13h-6a2.0027,2.0027,0,0,0-2,2v3.75a1.0069,1.0069,0,0,0,.4.8008L8.5,20.75V24a1.0006,1.0006,0,0,0,1,1h4a1.0006,1.0006,0,0,0,1-1V20.75l1.6006-1.2a1.0055,1.0055,0,0,0,.3994-.8V15A2.0027,2.0027,0,0,0,14.5,13Zm1,5.75-1,.75V16h-1v8h-4V16h-1v3.5l-1-.75V15a1.0006,1.0006,0,0,1,1-1h6a1.0006,1.0006,0,0,1,1,1Z"/></svg>