<svg id="Layer_1" data-name="Layer 1" xmlns="http://www.w3.org/2000/svg" viewBox="0 0 32 32"><defs><style>.cls-1{fill:#00243d;}</style></defs><title>Maersk_Icons_Share_20190627</title><path class="cls-1" d="M22.6846,10.0977l-.7818-.7823a1.0052,1.0052,0,0,0-.8174-.2861l-3.2968.3662.11.9941,3.2964-.3671.0374.0373-6.5359,6.5369.707.707L21.94,10.7666l.0372.0371-.3663,3.2969.9942.1113.3662-3.2978A.9972.9972,0,0,0,22.6846,10.0977Z"/><path class="cls-1" d="M20,21a1.0009,1.0009,0,0,1-1,1H11a1.0009,1.0009,0,0,1-1-1V13a1.0009,1.0009,0,0,1,1-1h4V11H11a2.0023,2.0023,0,0,0-2,2v8a2.0023,2.0023,0,0,0,2,2h8a2.0023,2.0023,0,0,0,2-2V17H20Z"/></svg>