<svg id="Layer_1" data-name="Layer 1" xmlns="http://www.w3.org/2000/svg" viewBox="0 0 32 32"><defs><style>.cls-1{fill:#00243d;}</style></defs><title>Maersk_Icons_Refresh2_20190627</title><polygon class="cls-1" points="14.354 13.646 13.646 14.354 15.293 16 13.646 17.646 14.354 18.354 16 16.707 17.646 18.354 18.354 17.646 16.707 16 18.354 14.354 17.646 13.646 16 15.293 14.354 13.646"/><path class="cls-1" d="M25.4893,11.8906l.3261-.9453L22.6611,9.8545a.9959.9959,0,0,0-.9316.1484l-1.168.8867a.9989.9989,0,0,0-.3916.8575l.2061,3.332.998-.0625-.206-3.3311.2115-.1606A6.9974,6.9974,0,1,1,16,9V8a8.0012,8.0012,0,1,0,6.1778,2.9192L22.335,10.8Z"/></svg>