<svg id="Layer_1" data-name="Layer 1" xmlns="http://www.w3.org/2000/svg" viewBox="0 0 32 32"><defs><style>.cls-1{fill:#00243d;}</style></defs><title>Maersk_Icons_Train_20190627</title><rect class="cls-1" x="12" y="17" width="2" height="1"/><rect class="cls-1" x="18" y="17" width="2" height="1"/><path class="cls-1" d="M19.5,8h-7A3.5042,3.5042,0,0,0,9,11.5v6.3242a1.0124,1.0124,0,0,0,.2168.6231l.002.0019L10.96,20.625a.9933.9933,0,0,0,.78.375h8.52a.9968.9968,0,0,0,.7812-.375l1.7422-2.1777A1.0124,1.0124,0,0,0,23,17.8242V11.5A3.5042,3.5042,0,0,0,19.5,8Zm-7,1h7A2.5023,2.5023,0,0,1,22,11.5V14H10V11.5A2.5023,2.5023,0,0,1,12.5,9Zm7.76,11H11.74L10,17.8242V15H22v2.8242Z"/><rect class="cls-1" x="11" y="23" width="10" height="1"/></svg>