<svg id="Layer_1" data-name="Layer 1" xmlns="http://www.w3.org/2000/svg" viewBox="0 0 32 32"><defs><style>.cls-1{fill:#00243d;}</style></defs><title>Maersk_Icons_Settings_20190627</title><path class="cls-1" d="M14,18a1.9986,1.9986,0,0,0-1.929,1.5H9v1h3.071a1.99,1.99,0,0,0,3.858,0H23v-1H15.929A1.9986,1.9986,0,0,0,14,18Zm0,3a1,1,0,1,1,1-1A1.0006,1.0006,0,0,1,14,21Z"/><path class="cls-1" d="M18,14a1.9986,1.9986,0,0,0-1.929,1.5H9v1h7.071a1.99,1.99,0,0,0,3.858,0H23v-1H19.929A1.9986,1.9986,0,0,0,18,14Zm0,3a1,1,0,1,1,1-1A1.0006,1.0006,0,0,1,18,17Z"/><path class="cls-1" d="M15.929,11.5a1.99,1.99,0,0,0-3.858,0H9v1h3.071a1.99,1.99,0,0,0,3.858,0H23v-1ZM14,13a1,1,0,1,1,1-1A1.0006,1.0006,0,0,1,14,13Z"/></svg>