<svg id="Layer_1" data-name="Layer 1" xmlns="http://www.w3.org/2000/svg" viewBox="0 0 32 32"><defs><style>.cls-1{fill:#00243d;}</style></defs><title>Maersk_Icons_System2_20190627</title><path class="cls-1" d="M16,13a3,3,0,1,0,3,3A3.0033,3.0033,0,0,0,16,13Zm0,5a2,2,0,1,1,2-2A2.0027,2.0027,0,0,1,16,18Z"/><path class="cls-1" d="M21.9551,16.7a5.4821,5.4821,0,0,0,0-1.4L23.25,14.2012a.9979.9979,0,0,0,.2188-1.2637l-1.0821-1.876a.9984.9984,0,0,0-1.2031-.44l-1.5947.5713a5.96,5.96,0,0,0-1.2188-.6992l-.3037-1.6719A.999.999,0,0,0,17.083,8H14.917a.9991.9991,0,0,0-.9834.82L13.63,10.4932a5.96,5.96,0,0,0-1.2188.6992l-1.5937-.5713a.9982.9982,0,0,0-1.2041.4414l-1.0821,1.874A.9974.9974,0,0,0,8.75,14.2l1.2949,1.1a5.4821,5.4821,0,0,0,0,1.4L8.75,17.7988a.9979.9979,0,0,0-.2188,1.2637l1.0821,1.876a.998.998,0,0,0,1.2031.44l1.5947-.5713a5.96,5.96,0,0,0,1.2188.6992l.3037,1.6719A.999.999,0,0,0,14.917,24h2.166a.9991.9991,0,0,0,.9834-.82l.3037-1.6729a5.96,5.96,0,0,0,1.2188-.6992l1.5937.5713a1.0017,1.0017,0,0,0,1.2041-.4414l1.0821-1.874A.9974.9974,0,0,0,23.25,17.8Zm-.4336,3.7373-1.8545-.6641a.4991.4991,0,0,0-.4873.085,4.9458,4.9458,0,0,1-1.4268.8184.5041.5041,0,0,0-.3174.3789L17.083,23H14.918l-.3535-1.9443a.5041.5041,0,0,0-.3174-.3789,4.9458,4.9458,0,0,1-1.4268-.8184.4993.4993,0,0,0-.3183-.1143.5095.5095,0,0,0-.169.0293l-1.8545.6641-1.082-1.876,1.5068-1.2783a.4962.4962,0,0,0,.17-.4629,4.6329,4.6329,0,0,1,0-1.6406.4962.4962,0,0,0-.17-.4629L9.3965,13.4375l1.082-1.875,1.8545.6641a.5016.5016,0,0,0,.4873-.085,4.9458,4.9458,0,0,1,1.4268-.8184.5041.5041,0,0,0,.3174-.3789L14.917,9h2.165l.3535,1.9443a.5041.5041,0,0,0,.3174.3789,4.9458,4.9458,0,0,1,1.4268.8184.5016.5016,0,0,0,.4873.085l1.8545-.6641,1.082,1.876-1.5068,1.2783a.4962.4962,0,0,0-.17.4629,4.6329,4.6329,0,0,1,0,1.6406.4962.4962,0,0,0,.17.4629l1.5068,1.2793Z"/></svg>