<svg id="Layer_1" data-name="Layer 1" xmlns="http://www.w3.org/2000/svg" viewBox="0 0 32 32"><defs><style>.cls-1{fill:#00243d;}</style></defs><title>Maersk_Icons_Warning_20190627</title><polygon class="cls-1" points="15.583 18.508 16.417 18.508 16.5 13 15.5 13 15.582 18.447 15.583 18.508"/><rect class="cls-1" x="15.3942" y="19.7654" width="1.2115" height="1.2346"/><path class="cls-1" d="M25.2705,21.4746H25.27L17.5762,8.4912A1.0043,1.0043,0,0,0,16.7148,8h-1.43a1.0027,1.0027,0,0,0-.86.49L6.73,21.4746a1.0063,1.0063,0,0,0,.0293,1.0645l.6767,1.0166A1.0009,1.0009,0,0,0,8.2676,24H23.7324a.9993.9993,0,0,0,.8321-.4453L25.24,22.54A1.0059,1.0059,0,0,0,25.2705,21.4746ZM23.7324,23H8.2676L7.59,21.9844,15.2852,9h1.4306l7.6934,12.9844Z"/></svg>