<svg id="Layer_1" data-name="Layer 1" xmlns="http://www.w3.org/2000/svg" viewBox="0 0 32 32"><defs><style>.cls-1{fill:#00243d;}</style></defs><title>Maersk_Icons_Accesibility_20190627</title><path class="cls-1" d="M17,7H15a1.0029,1.0029,0,0,0-1,1v2.5a1.0029,1.0029,0,0,0,1,1h2a1.0029,1.0029,0,0,0,1-1V8A1.0029,1.0029,0,0,0,17,7Zm0,3.5H15V8h2Z"/><path class="cls-1" d="M22,13H10a1.0029,1.0029,0,0,0-1,1v1.07a1.0093,1.0093,0,0,0,.86.99l2.64.37v2.01l-1.33,5.32a.989.989,0,0,0,.18.86,1.0056,1.0056,0,0,0,.79.38h1.03a.9872.9872,0,0,0,.92-.62L16,19.8l1.91,4.58a.9872.9872,0,0,0,.92.62h1.03a1.0056,1.0056,0,0,0,.79-.38.989.989,0,0,0,.18-.86L19.5,18.44V16.43l2.64-.37a1.0093,1.0093,0,0,0,.86-.99V14A1.0029,1.0029,0,0,0,22,13Zm0,2.07-2.64.37a1.0093,1.0093,0,0,0-.86.99V18.5a.4877.4877,0,0,0,.01.12L19.86,24H18.83l-1.91-4.58a.9926.9926,0,0,0-1.84,0L13.17,24H12.14l1.35-5.38a.4877.4877,0,0,0,.01-.12V16.43a1.0093,1.0093,0,0,0-.86-.99L10,15.07V14H22Z"/></svg>