<svg id="Layer_1" data-name="Layer 1" xmlns="http://www.w3.org/2000/svg" viewBox="0 0 32 32"><defs><style>.cls-1{fill:#00243d;}</style></defs><title>Maersk_Icons_Trash_20190627</title><path class="cls-1" d="M20.68,13.35a1.01,1.01,0,0,0-.76-.35H12.08a1.0019,1.0019,0,0,0-.99,1.15l1.35,9a.9928.9928,0,0,0,.99.85h5.14a.9928.9928,0,0,0,.99-.85l1.35-9A1.0047,1.0047,0,0,0,20.68,13.35ZM18.57,23H13.43l-1.35-9h7.84Z"/><path class="cls-1" d="M19,10.5V9a1.0029,1.0029,0,0,0-1-1H14a1.0029,1.0029,0,0,0-1,1v1.5H11v1H21v-1Zm-1,0H14V9h4Z"/><rect class="cls-1" x="15.5" y="16" width="1" height="5"/></svg>