<svg id="Layer_1" data-name="Layer 1" xmlns="http://www.w3.org/2000/svg" viewBox="0 0 32 32"><defs><style>.cls-1{fill:#00243d;}</style></defs><title>Maersk_Icons_Alert_20190627</title><path class="cls-1" d="M23.707,12.5,19.5,8.293A.9951.9951,0,0,0,18.793,8H13.207a.9951.9951,0,0,0-.707.293L8.293,12.5A.9951.9951,0,0,0,8,13.207v5.586a.9951.9951,0,0,0,.293.707L12.5,23.707a.9951.9951,0,0,0,.707.293h5.586a.9951.9951,0,0,0,.707-.293L23.707,19.5A.9951.9951,0,0,0,24,18.793V13.207A.9951.9951,0,0,0,23.707,12.5ZM23,18.793,18.793,23H13.207L9,18.793V13.207L13.207,9h5.586L23,13.207Z"/><polygon class="cls-1" points="15.583 17.508 16.417 17.508 16.5 12 15.5 12 15.582 17.447 15.583 17.508"/><rect class="cls-1" x="15.3942" y="18.7654" width="1.2115" height="1.2346"/></svg>