<svg id="Layer_1" data-name="Layer 1" xmlns="http://www.w3.org/2000/svg" viewBox="0 0 32 32"><defs><style>.cls-1{fill:#00243d;}</style></defs><title>Maersk_Icons_Phone_20190627</title><path class="cls-1" d="M22,20.29,19.71,18a1.0271,1.0271,0,0,0-1.42,0l-.9.91-2.64-1.13a1.0538,1.0538,0,0,1-.53-.53l-1.13-2.64.91-.9a1.0141,1.0141,0,0,0,0-1.42L11.71,10a1.0078,1.0078,0,0,0-1.42,0L8.83,11.46a2.03,2.03,0,0,0-.46,2.12l2.18,5.82a3.5141,3.5141,0,0,0,2.05,2.05l5.82,2.18a2.1131,2.1131,0,0,0,.7.13,2.0235,2.0235,0,0,0,1.42-.59L22,21.71A1.008,1.008,0,0,0,22,20.29Zm-2.17,2.17a.9933.9933,0,0,1-1.06.23l-5.82-2.18a2.5039,2.5039,0,0,1-1.46-1.46L9.31,13.23a.9933.9933,0,0,1,.23-1.06L11,10.71,13.29,13l-.9.91a.9833.9833,0,0,0-.22,1.1l1.13,2.63a2.05,2.05,0,0,0,1.05,1.06l2.64,1.13a.9832.9832,0,0,0,1.1-.22l.91-.9L21.29,21Z"/><path class="cls-1" d="M23.96,15.31l-.92.38-1.53-3.81a2.4977,2.4977,0,0,0-1.39-1.39L16.31,8.96l.38-.92,3.8,1.52a3.4614,3.4614,0,0,1,1.95,1.95Z"/><path class="cls-1" d="M21.21,15.8l-.92.4-1.26-2.95a1.0538,1.0538,0,0,0-.53-.53l-2.95-1.26.4-.92L18.9,11.8a2.05,2.05,0,0,1,1.05,1.06Z"/></svg>