<svg id="Layer_1" data-name="Layer 1" xmlns="http://www.w3.org/2000/svg" viewBox="0 0 32 32"><defs><style>.cls-1{fill:#00243d;}</style></defs><title>Maersk_Icons_Task_20190627</title><path class="cls-1" d="M21,9.5H19v-1a.5.5,0,0,0-.5-.5h-5a.5.5,0,0,0-.5.5v1H11a1.0006,1.0006,0,0,0-1,1V23a1.0006,1.0006,0,0,0,1,1H21a1.0006,1.0006,0,0,0,1-1V10.5A1.0006,1.0006,0,0,0,21,9.5ZM14,9h4v2H14Zm7,14H11V10.5h2v1a.5.5,0,0,0,.5.5h5a.5.5,0,0,0,.5-.5v-1h2Z"/><path class="cls-1" d="M15.9717,18h-.7276l-1.35-1.7354-.789.6133,1.35,1.7354a.9911.9911,0,0,0,.789.3867h.7276a1.0031,1.0031,0,0,0,.85-.4727l2.1035-3.3857-.85-.5273Z"/></svg>