<svg id="Layer_1" data-name="Layer 1" xmlns="http://www.w3.org/2000/svg" viewBox="0 0 32 32"><defs><style>.cls-1{fill:#00243d;}</style></defs><title>Maersk_Icons_Export_20190627</title><path class="cls-1" d="M23,18v3a1.0009,1.0009,0,0,1-1,1H10a1.0009,1.0009,0,0,1-1-1V18H8v3a2.0023,2.0023,0,0,0,2,2H22a2.0023,2.0023,0,0,0,2-2V18Z"/><path class="cls-1" d="M15.24,10h.26V20h1V10h.2593l2.85,3.5625.7812-.625L17.54,9.375A.9948.9948,0,0,0,16.76,9H15.24a.9965.9965,0,0,0-.7807.375l-2.85,3.5625.7812.625Z"/></svg>