<svg id="Layer_1" data-name="Layer 1" xmlns="http://www.w3.org/2000/svg" viewBox="0 0 32 32"><defs><style>.cls-1{fill:#00243d;}</style></defs><title>Maersk_Icons_Search_20190627</title><path class="cls-1" d="M23.7031,20.9961,19.707,17a1,1,0,0,0-1.414,0L18,17.293l-1.1465-1.1465A4.9506,4.9506,0,0,0,18,13a5,5,0,1,0-5,5,4.9514,4.9514,0,0,0,3.1465-1.1465L17.293,18,17,18.293a1.0014,1.0014,0,0,0,0,1.414l3.9961,3.9961a1.002,1.002,0,0,0,1.4141,0L23.7031,22.41A1.0014,1.0014,0,0,0,23.7031,20.9961ZM9,13a4,4,0,1,1,4,4A4.0039,4.0039,0,0,1,9,13Zm12.7031,9.9961L17.707,19,19,17.707l3.9961,3.9961Z"/></svg>