<svg id="Layer_1" data-name="Layer 1" xmlns="http://www.w3.org/2000/svg" viewBox="0 0 32 32"><defs><style>.cls-1{fill:#00243d;}</style></defs><title>Maersk_Icons_User_20190627</title><path class="cls-1" d="M16,8a8,8,0,1,0,8,8A8.01,8.01,0,0,0,16,8Zm0,15a6.7382,6.7382,0,0,1-2.94-.66l.64-2.58a.9949.9949,0,0,1,.97-.76h2.66a.9949.9949,0,0,1,.97.76l.64,2.58A6.7382,6.7382,0,0,1,16,23Zm3.86-1.16-.59-2.33A1.9916,1.9916,0,0,0,17.33,18H14.67a1.9916,1.9916,0,0,0-1.94,1.51l-.59,2.33a7,7,0,1,1,7.72,0Z"/><path class="cls-1" d="M17,12H15a1.0029,1.0029,0,0,0-1,1v2.5a1.0029,1.0029,0,0,0,1,1h2a1.0029,1.0029,0,0,0,1-1V13A1.0029,1.0029,0,0,0,17,12Zm0,3.5H15V13h2Z"/></svg>