<svg id="Layer_1" data-name="Layer 1" xmlns="http://www.w3.org/2000/svg" viewBox="0 0 32 32"><defs><style>.cls-1{fill:#00243d;}</style></defs><title>Maersk_Icons_Payment_20190627</title><path class="cls-1" d="M17.31,15.7834a2.8087,2.8087,0,0,0-.7841-.3134l-.6759-.1624a1.14,1.14,0,0,1-.57-.2593.729.729,0,0,1-.14-.5073.5929.5929,0,0,1,.18-.5036,1.2756,1.2756,0,0,1,.736-.1478,5.4535,5.4535,0,0,1,.7135.05,5.9935,5.9935,0,0,1,.6476.1163l.18.0444v-.9937l-.1139-.0249a7.4681,7.4681,0,0,0-.9733-.1474V12h-.9921v.9478a1.7088,1.7088,0,0,0-1.074.4641,1.6271,1.6271,0,0,0-.3727,1.1374,2.1256,2.1256,0,0,0,.1458.8582,1.2135,1.2135,0,0,0,.46.5432,2.6948,2.6948,0,0,0,.7963.3137l.7709.1968a.9442.9442,0,0,1,.497.2512.8882.8882,0,0,1,.129.55.8.8,0,0,1-.2165.6458,1.3506,1.3506,0,0,1-.82.1845,5.44,5.44,0,0,1-.8086-.0613,6.789,6.789,0,0,1-.72-.1459l-.1826-.0489v.99l.1073.0293a6.4963,6.4963,0,0,0,1.2877.2041v.94h.9921v-.98a1.6974,1.6974,0,0,0,1.0543-.54V18.48a1.9156,1.9156,0,0,0,.3661-1.2427,2.2675,2.2675,0,0,0-.1487-.8965A1.2283,1.2283,0,0,0,17.31,15.7834Z"/><path class="cls-1" d="M16,8a8,8,0,1,0,8,8A8.0092,8.0092,0,0,0,16,8Zm0,15a7,7,0,1,1,7-7A7.0085,7.0085,0,0,1,16,23Z"/></svg>