<svg id="Layer_1" data-name="Layer 1" xmlns="http://www.w3.org/2000/svg" viewBox="0 0 32 32"><defs><style>.cls-1{fill:#00243d;}</style></defs><title>Maersk_Icons_Document_20190627</title><path class="cls-1" d="M21.71,12,18,8.29A.99.99,0,0,0,17.29,8H11a1.0029,1.0029,0,0,0-1,1V23a1.0029,1.0029,0,0,0,1,1H21a1.0029,1.0029,0,0,0,1-1V12.71A.9894.9894,0,0,0,21.71,12ZM18,9.71,20.29,12H18ZM21,23H11V9h6v3.5a.4951.4951,0,0,0,.5.5H21Z"/><rect class="cls-1" x="13" y="19" width="6" height="1"/><rect class="cls-1" x="13" y="16" width="6" height="1"/><rect class="cls-1" x="13" y="12" width="2" height="1"/></svg>