<svg id="Layer_1" data-name="Layer 1" xmlns="http://www.w3.org/2000/svg" viewBox="0 0 32 32"><defs><style>.cls-1{fill:#00243d;}</style></defs><title>Maersk_Icons_ContainerLoading_20190627</title><path class="cls-1" d="M22,16H20.67L16.5,12.76v-.83A1.9954,1.9954,0,0,0,18,10H17a1,1,0,1,1-1-1,.4951.4951,0,0,0,.5-.5V7h-1V8.06A2.0159,2.0159,0,0,0,14,10a1.9954,1.9954,0,0,0,1.5,1.93v.83L11.33,16H10a1.0029,1.0029,0,0,0-1,1v7a1.0029,1.0029,0,0,0,1,1H22a1.0029,1.0029,0,0,0,1-1V17A1.0029,1.0029,0,0,0,22,16Zm-6-2.37L19.04,16H12.96ZM22,24H10V17H22Z"/><rect class="cls-1" x="12.5" y="19" width="1" height="3"/><rect class="cls-1" x="15.5" y="19" width="1" height="3"/><rect class="cls-1" x="18.5" y="19" width="1" height="3"/></svg>