<svg id="Layer_1" data-name="Layer 1" xmlns="http://www.w3.org/2000/svg" viewBox="0 0 32 32"><defs><style>.cls-1{fill:#00243d;}</style></defs><title>Maersk_Icons_Visible_20190627</title><path class="cls-1" d="M24.84,14.84a10.4932,10.4932,0,0,0-17.68,0,1.0412,1.0412,0,0,0-.16.55v1.22a1.0394,1.0394,0,0,0,.16.55,10.4929,10.4929,0,0,0,17.68,0,1.0411,1.0411,0,0,0,.16-.55V15.39A1.0429,1.0429,0,0,0,24.84,14.84ZM24,16.62a9.49,9.49,0,0,1-16-.01V15.38a9.4961,9.4961,0,0,1,16,0Z"/><path class="cls-1" d="M16,12.5A3.5,3.5,0,1,0,19.5,16,3.5039,3.5039,0,0,0,16,12.5Zm0,6A2.5,2.5,0,1,1,18.5,16,2.501,2.501,0,0,1,16,18.5Z"/></svg>