<svg id="Layer_1" data-name="Layer 1" xmlns="http://www.w3.org/2000/svg" viewBox="0 0 32 32"><defs><style>.cls-1{fill:#00243d;}</style></defs><title>Maersk_Icons_Discharge_20190627</title><path class="cls-1" d="M24.625,17.959l-2.3125-1.85-.625.7812L24,18.74V19H19v1h5v.26l-2.3125,1.85.625.7812L24.625,21.04A.9933.9933,0,0,0,25,20.26V18.74A.9968.9968,0,0,0,24.625,17.959Z"/><path class="cls-1" d="M17,9H8a1.0029,1.0029,0,0,0-1,1v3a1.0029,1.0029,0,0,0,1,1h4v2.04a3.4981,3.4981,0,1,0,4,3.46H15A2.5,2.5,0,1,1,12.5,17a.4951.4951,0,0,0,.5-.5V14h4a1.0029,1.0029,0,0,0,1-1V10A1.0029,1.0029,0,0,0,17,9Zm0,4H8V10h9Z"/></svg>