<svg id="Layer_1" data-name="Layer 1" xmlns="http://www.w3.org/2000/svg" viewBox="0 0 32 32"><defs><style>.cls-1{fill:#00243d;}</style></defs><title>Maersk_Icons_Invisible_20190627</title><path class="cls-1" d="M24.84,14.84a10.4635,10.4635,0,0,0-13.18-3.89L9.82,9.11l-.71.71,1.61,1.61a10.6383,10.6383,0,0,0-3.56,3.41,1.0429,1.0429,0,0,0-.16.55v1.22a1.0411,1.0411,0,0,0,.16.55,10.4633,10.4633,0,0,0,13.18,3.89l1.84,1.84.71-.71-1.61-1.61a10.6392,10.6392,0,0,0,3.56-3.41,1.0411,1.0411,0,0,0,.16-.55V15.39A1.0429,1.0429,0,0,0,24.84,14.84ZM16,21a9.4359,9.4359,0,0,1-8-4.39V15.38a9.4946,9.4946,0,0,1,3.45-3.22l1.76,1.75a3.4827,3.4827,0,0,0,4.88,4.88l1.5,1.51A9.6066,9.6066,0,0,1,16,21Zm1.38-2.92A2.4429,2.4429,0,0,1,16,18.5,2.501,2.501,0,0,1,13.5,16a2.4431,2.4431,0,0,1,.42-1.38Zm-2.76-4.16A2.4429,2.4429,0,0,1,16,13.5,2.501,2.501,0,0,1,18.5,16a2.4431,2.4431,0,0,1-.42,1.38ZM24,16.62a9.4938,9.4938,0,0,1-3.45,3.22l-1.76-1.75a3.4826,3.4826,0,0,0-4.88-4.88l-1.5-1.51A9.6066,9.6066,0,0,1,16,11a9.45,9.45,0,0,1,8,4.38Z"/></svg>