<svg id="Layer_1" data-name="Layer 1" xmlns="http://www.w3.org/2000/svg" viewBox="0 0 32 32"><defs><style>.cls-1{fill:#00243d;}</style></defs><title>Maersk_Icons_Pencil_20190627</title><path class="cls-1" d="M22.7051,11.09l-1.793-1.7929a1,1,0,0,0-1.4141,0L9.2949,19.5a.995.995,0,0,0-.2929.707V22a1.0006,1.0006,0,0,0,1,1h1.7929a.9953.9953,0,0,0,.7071-.293L22.7051,12.5039A1.0015,1.0015,0,0,0,22.7051,11.09ZM11.7949,22H10.002V20.207l7.7031-7.7031,1.7929,1.793Zm8.41-8.41-1.793-1.7929,1.793-1.793,1.7929,1.793Z"/></svg>