<svg id="Layer_1" data-name="Layer 1" xmlns="http://www.w3.org/2000/svg" viewBox="0 0 32 32"><defs><style>.cls-1{fill:#00243d;}</style></defs><title>Maersk_Icons_System1_20190627</title><path class="cls-1" d="M16,13a3,3,0,1,0,3,3A3.0033,3.0033,0,0,0,16,13Zm0,5a2,2,0,1,1,2-2A2.0027,2.0027,0,0,1,16,18Z"/><path class="cls-1" d="M23.2168,14.4248l-1.5352-.3408a5.8348,5.8348,0,0,0-.3086-.7481l.8438-1.3242a1.007,1.007,0,0,0-.1367-1.2451L21.2334,9.92a1.0017,1.0017,0,0,0-1.2441-.1367l-1.3252.8438a5.8348,5.8348,0,0,0-.7481-.3086l-.3408-1.5352A1.0065,1.0065,0,0,0,16.5986,8H15.4014a1.0065,1.0065,0,0,0-.9766.7832l-.3408,1.5352a5.8348,5.8348,0,0,0-.7481.3086l-1.3242-.8438a1.007,1.007,0,0,0-1.2451.1367l-.8467.8467a1.0057,1.0057,0,0,0-.1367,1.2441l.8438,1.3252a5.8348,5.8348,0,0,0-.3086.7481l-1.5352.3408A1.0065,1.0065,0,0,0,8,15.4014v1.1972a1.0065,1.0065,0,0,0,.7832.9766l1.5352.3408a5.8348,5.8348,0,0,0,.3086.7481l-.8438,1.3242A1.007,1.007,0,0,0,9.92,21.2334l.8467.8467a1.0054,1.0054,0,0,0,1.2441.1367l1.3252-.8438a5.8348,5.8348,0,0,0,.7481.3086l.3408,1.5352A1.0065,1.0065,0,0,0,15.4014,24h1.1972a1.0065,1.0065,0,0,0,.9766-.7832l.3408-1.5352a5.8348,5.8348,0,0,0,.7481-.3086l1.3242.8438a1.0113,1.0113,0,0,0,1.2451-.1367l.8467-.8467a1.0057,1.0057,0,0,0,.1367-1.2441l-.8438-1.3252a5.8348,5.8348,0,0,0,.3086-.7481l1.5352-.3408A1.0065,1.0065,0,0,0,24,16.5986V15.4014A1.0065,1.0065,0,0,0,23.2168,14.4248ZM23,16.5986l-1.8184.4043a.5012.5012,0,0,0-.373.3526,4.984,4.984,0,0,1-.4482,1.0869.5.5,0,0,0,.0136.5137l.999,1.57-.8466.8466-1.57-.999a.5044.5044,0,0,0-.5137-.0136,4.984,4.984,0,0,1-1.0869.4482.5012.5012,0,0,0-.3526.373L16.5986,23H15.4014l-.4043-1.8184a.5012.5012,0,0,0-.3526-.373,4.984,4.984,0,0,1-1.0869-.4482.5.5,0,0,0-.5137.0136l-1.57.999-.8466-.8466.999-1.57a.5.5,0,0,0,.0136-.5137,4.984,4.984,0,0,1-.4482-1.0869.5012.5012,0,0,0-.373-.3526L9,16.5986V15.4014l1.8184-.4043a.5012.5012,0,0,0,.373-.3526,4.984,4.984,0,0,1,.4482-1.0869.5.5,0,0,0-.0136-.5137l-.999-1.57.8466-.8466,1.57.999a.4978.4978,0,0,0,.5137.0136,4.984,4.984,0,0,1,1.0869-.4482.5012.5012,0,0,0,.3526-.373L15.4014,9h1.1972l.4043,1.8184a.5012.5012,0,0,0,.3526.373,4.984,4.984,0,0,1,1.0869.4482.5045.5045,0,0,0,.5137-.0136l1.57-.999.8466.8466-.999,1.57a.5.5,0,0,0-.0136.5137,4.984,4.984,0,0,1,.4482,1.0869.5012.5012,0,0,0,.373.3526L23,15.4014Z"/></svg>