<svg id="Layer_1" data-name="Layer 1" xmlns="http://www.w3.org/2000/svg" viewBox="0 0 32 32"><defs><style>.cls-1{fill:#00243d;}</style></defs><title>Maersk_Icons_Reduce_20190627</title><path class="cls-1" d="M14.8091,16.4092a.9909.9909,0,0,0-.8174-.2862l-3.2969.3663.11.9941,3.2964-.3672.0374.0374-5.13,5.1306.707.707,5.13-5.1308.0371.0371-.3662,3.2968.9941.1114.3662-3.2979a.997.997,0,0,0-.2866-.8164Z"/><path class="cls-1" d="M17.8984,14.8838l-.0374-.0374,5.13-5.1306-.707-.707-5.13,5.1308-.0371-.0371.3662-3.2968-.9941-.1114-.3662,3.2979a.997.997,0,0,0,.2866.8164l.7817.7822a.9907.9907,0,0,0,.7022.293,1.15,1.15,0,0,0,.1152-.0068l3.2969-.3663-.11-.9941Z"/></svg>