<svg id="Layer_1" data-name="Layer 1" xmlns="http://www.w3.org/2000/svg" viewBox="0 0 32 32"><defs><style>.cls-1{fill:#00243d;}</style></defs><title>Maersk_Icons_Person_20190627</title><path class="cls-1" d="M17,7H15a1.0029,1.0029,0,0,0-1,1v2.5a1.0029,1.0029,0,0,0,1,1h2a1.0029,1.0029,0,0,0,1-1V8A1.0029,1.0029,0,0,0,17,7Zm0,3.5H15V8h2Z"/><path class="cls-1" d="M19,13H13a2.0027,2.0027,0,0,0-2,2v3.75a1.0069,1.0069,0,0,0,.4.8008L13,20.75V24a1.0006,1.0006,0,0,0,1,1h4a1.0006,1.0006,0,0,0,1-1V20.75l1.6006-1.2A1.0055,1.0055,0,0,0,21,18.75V15A2.0027,2.0027,0,0,0,19,13Zm1,5.75-1,.75V16H18v8H14V16H13v3.5l-1-.75V15a1.0006,1.0006,0,0,1,1-1h6a1.0006,1.0006,0,0,1,1,1Z"/></svg>