<svg id="Layer_1" data-name="Layer 1" xmlns="http://www.w3.org/2000/svg" viewBox="0 0 32 32"><defs><style>.cls-1{fill:#00243d;}</style></defs><title>Maersk_Icons_Secure_20190627</title><path class="cls-1" d="M22,12H19V10a2.0058,2.0058,0,0,0-2-2H15a2.0058,2.0058,0,0,0-2,2v2H10a1.0029,1.0029,0,0,0-1,1V23a1.0029,1.0029,0,0,0,1,1H22a1.0029,1.0029,0,0,0,1-1V13A1.0029,1.0029,0,0,0,22,12Zm-8-2a1.0029,1.0029,0,0,1,1-1h2a1.0029,1.0029,0,0,1,1,1v2H14Zm8,13H10V13H22Z"/><path class="cls-1" d="M16,15a1.9958,1.9958,0,0,0-.5,3.929V21h1V18.929A1.9958,1.9958,0,0,0,16,15Zm0,3a1,1,0,1,1,1-1A1.0006,1.0006,0,0,1,16,18Z"/></svg>