<svg id="Layer_1" data-name="Layer 1" xmlns="http://www.w3.org/2000/svg" viewBox="0 0 32 32"><defs><style>.cls-1{fill:#00243d;}</style></defs><title>Maersk_Icons_Anchor_20190627</title><path class="cls-1" d="M22.707,19.5,21.5,18.293A.9951.9951,0,0,0,20.793,18H19v1h1.793l.25.25-2.4571,2.457a1.2514,1.2514,0,0,1-.707.293H16.5V15.5H19v-1H16.5V12.929a2,2,0,1,0-1,0V14.5H13v1h2.5V22H14.1211a1.0064,1.0064,0,0,1-.707-.293L10.957,19.25l.25-.25H13V18H11.207a.9951.9951,0,0,0-.707.293L9.293,19.5A.9951.9951,0,0,0,9,20.207V22h1V20.207l.25-.25,2.457,2.4571A2.0147,2.0147,0,0,0,14.1211,23h3.7578a2.23,2.23,0,0,0,1.4141-.5859L21.75,19.957l.25.25V22h1V20.207A.9951.9951,0,0,0,22.707,19.5ZM15,11a1,1,0,1,1,1,1A1.0006,1.0006,0,0,1,15,11Z"/></svg>