<svg id="Layer_1" data-name="Layer 1" xmlns="http://www.w3.org/2000/svg" viewBox="0 0 32 32"><defs><style>.cls-1{fill:#00243d;}</style></defs><title>Maersk_Icons_Flame_20190627</title><path class="cls-1" d="M17.3857,8.4053A.9816.9816,0,0,0,16.582,8H15.418a.9834.9834,0,0,0-.8037.4043C13.6494,9.7275,10.5,14.3672,10.5,18.5a5.5,5.5,0,0,0,11,0C21.5,14.3672,18.3506,9.7275,17.3857,8.4053ZM14,21a6.9081,6.9081,0,0,1,1.876-4.5h.249A6.8675,6.8675,0,0,1,18,21a2,2,0,0,1-4,0Zm4.8234.9753A2.96,2.96,0,0,0,19,21a7.8506,7.8506,0,0,0-2.3281-5.3672A.495.495,0,0,0,16.333,15.5h-.666a.495.495,0,0,0-.3389.1328A7.8506,7.8506,0,0,0,13,21a2.9624,2.9624,0,0,0,.1766.9753A4.4742,4.4742,0,0,1,11.5,18.5c0-3.9287,3.2676-8.6084,3.918-9.5l1.1591-.0059C17.2324,9.8916,20.5,14.5713,20.5,18.5A4.4735,4.4735,0,0,1,18.8234,21.9753Z"/></svg>