<svg id="Layer_1" data-name="Layer 1" xmlns="http://www.w3.org/2000/svg" viewBox="0 0 32 32"><defs><style>.cls-1{fill:#00243d;}</style></defs><title>Maersk_Icons_Play_20190627</title><path class="cls-1" d="M16,8a8,8,0,1,0,8,8A8.0092,8.0092,0,0,0,16,8Zm0,15a7,7,0,1,1,7-7A7.0085,7.0085,0,0,1,16,23Z"/><path class="cls-1" d="M19.498,14.7969l-4.4628-2.5664a1.0055,1.0055,0,0,0-1.0987.0664l-.5371.4033A1.0055,1.0055,0,0,0,13,13.5v5a1.0069,1.0069,0,0,0,.4.8008l.5371.4033a1.0019,1.0019,0,0,0,1.0967.0654l4.4648-2.5674A1.003,1.003,0,0,0,20,16.3359v-.6718A1.0047,1.0047,0,0,0,19.498,14.7969ZM19,16.3359l-4.4639,2.5664L14,18.5v-5l.5361-.4023,4.4629,2.5654.001.001Z"/></svg>