<svg id="Layer_1" data-name="Layer 1" xmlns="http://www.w3.org/2000/svg" viewBox="0 0 32 32"><defs><style>.cls-1{fill:#00243d;}</style></defs><title>Maersk_Icons_Ship_20190627</title><path class="cls-1" d="M23.2217,17.9014a1.0068,1.0068,0,0,0-.6279-.55L21,16.8992V13a1.0006,1.0006,0,0,0-1-1H18V9a1.0006,1.0006,0,0,0-1-1H15a1.0006,1.0006,0,0,0-1,1v3H12a1.0006,1.0006,0,0,0-1,1v3.9l-1.6045.4556A1,1,0,0,0,8.78,18.7246l1.8652,4.1035A2.0033,2.0033,0,0,0,12.4658,24h7.0684a2.0033,2.0033,0,0,0,1.82-1.1719L23.22,18.7246A.9964.9964,0,0,0,23.2217,17.9014ZM15,9h2v3H15Zm-3,4h8v3.6152l-3.8633-1.0966a.5.5,0,0,0-.2734,0L12,16.6157Zm8.4443,9.4141a1.0007,1.0007,0,0,1-.91.5859H12.4658a1.0007,1.0007,0,0,1-.91-.5859l-1.876-4.1L16,16.52l6.31,1.791Z"/></svg>