<svg id="Layer_1" data-name="Layer 1" xmlns="http://www.w3.org/2000/svg" viewBox="0 0 32 32"><defs><style>.cls-1{fill:#00243d;}</style></defs><title>Maersk_Icons_Copy_20190627</title><path class="cls-1" d="M18,7H10A1.0006,1.0006,0,0,0,9,8v8h1V8h8Z"/><path class="cls-1" d="M22.71,14,19,10.29a.99.99,0,0,0-.71-.29H13a1.0029,1.0029,0,0,0-1,1V24a1.0029,1.0029,0,0,0,1,1h9a1.0029,1.0029,0,0,0,1-1V14.71A.9894.9894,0,0,0,22.71,14ZM19,11.71,21.29,14H19ZM22,24H13V11h5v3.5a.4951.4951,0,0,0,.5.5H22Z"/><rect class="cls-1" x="15" y="20" width="5" height="1"/><rect class="cls-1" x="15" y="17" width="5" height="1"/></svg>