<svg id="Layer_1" data-name="Layer 1" xmlns="http://www.w3.org/2000/svg" viewBox="0 0 32 32"><defs><style>.cls-1{fill:#00243d;}</style></defs><title>Maersk_Icons_Location_20190627</title><path class="cls-1" d="M16,11a2.5,2.5,0,1,0,2.5,2.5A2.5023,2.5023,0,0,0,16,11Zm0,4a1.5,1.5,0,1,1,1.5-1.5A1.5017,1.5017,0,0,1,16,15Z"/><path class="cls-1" d="M16.0967,8.001c-.0322,0-.0645-.001-.0977-.001A5.5008,5.5008,0,0,0,10.5,13.5c0,4.1328,3.1494,8.7725,4.1143,10.0947A.9816.9816,0,0,0,15.418,24h1.164a.9856.9856,0,0,0,.8047-.4062C18.0732,22.6533,21.5,17.7441,21.5,13.5A5.4587,5.4587,0,0,0,16.0967,8.001ZM16.5811,23l-1.1582.0059C14.7676,22.1084,11.5,17.4287,11.5,13.5A4.5007,4.5007,0,0,1,16,9c.0264,0,.0527,0,.0791.001A4.4655,4.4655,0,0,1,20.5,13.5C20.5,17.4287,17.2432,22.0938,16.5811,23Z"/></svg>