<svg id="Layer_1" data-name="Layer 1" xmlns="http://www.w3.org/2000/svg" viewBox="0 0 32 32"><defs><style>.cls-1{fill:#00243d;}</style></defs><title>Maersk_Icons_Favourite_20190627</title><path class="cls-1" d="M20.49,9.06A4.2548,4.2548,0,0,0,16,11.25a4.2492,4.2492,0,0,0-8,2.09c.07,4.54,5.71,8.69,6.84,9.48a.9451.9451,0,0,0,.57.18h1.18a.9451.9451,0,0,0,.57-.18c1.13-.79,6.77-4.94,6.84-9.48A4.293,4.293,0,0,0,20.49,9.06ZM16.59,22H15.41c-.65-.45-6.34-4.54-6.41-8.68a3.3169,3.3169,0,0,1,2.68-3.27,3.7851,3.7851,0,0,1,.58-.05,3.1974,3.1974,0,0,1,2.09.77,3.2444,3.2444,0,0,1,1.15,2.48h1a3.2511,3.2511,0,0,1,3.82-3.2A3.3169,3.3169,0,0,1,23,13.32C22.93,17.46,17.24,21.55,16.59,22Z"/></svg>