<svg id="Layer_1" data-name="Layer 1" xmlns="http://www.w3.org/2000/svg" viewBox="0 0 32 32"><defs><style>.cls-1{fill:#00243d;}</style></defs><title>Maersk_Icons_Chat_20190627</title><rect class="cls-1" x="16" y="11" width="1" height="2.5"/><rect class="cls-1" x="19" y="11" width="1" height="2.5"/><rect class="cls-1" x="22" y="11" width="1" height="2.5"/><path class="cls-1" d="M25,8H14a1.0029,1.0029,0,0,0-1,1v4H9a1.0029,1.0029,0,0,0-1,1v6.5a1.0029,1.0029,0,0,0,1,1h4.29l2.21,2.21a.99.99,0,0,0,.71.29H17a1.0029,1.0029,0,0,0,1-1V21.5h2a1.0029,1.0029,0,0,0,1-1v-4h4a1.0029,1.0029,0,0,0,1-1V9A1.0029,1.0029,0,0,0,25,8ZM20,20.5H18a1.0029,1.0029,0,0,0-1,1V23h-.79L14,20.79a.99.99,0,0,0-.71-.29H9V14h4v1.5a1.0029,1.0029,0,0,0,1,1h2V18a1.0029,1.0029,0,0,0,1,1h.79a.99.99,0,0,0,.71-.29l1.5-1.5Zm5-5H20.71a.99.99,0,0,0-.71.29L17.79,18H17V16.5a1.0029,1.0029,0,0,0-1-1H14V9H25Z"/></svg>