<?xml version="1.0" encoding="utf-8"?>
<!-- Generator: Adobe Illustrator 24.0.1, SVG Export Plug-In . SVG Version: 6.00 Build 0)  -->
<svg version="1.1" id="Layer_2" xmlns="http://www.w3.org/2000/svg" xmlns:xlink="http://www.w3.org/1999/xlink" x="0px" y="0px"
	 viewBox="0 0 270.2 287.7" style="enable-background:new 0 0 270.2 287.7;" xml:space="preserve">
<style type="text/css">
	.st0{fill:#9D9D9C;}
	.st1{fill:#7C99B4;}
	.st2{fill:#FBC895;}
	.st3{fill:#004062;}
	.st4{fill:#F07D00;}
</style>
<path class="st0" d="M135.2,99.8c-5,0-9.1,3.4-10.5,8c0.8,0.2,1.5,0.5,2.3,0.8c1.1-3.7,4.4-6.5,8.3-6.5s7.2,2.7,8.3,6.5
	c0.7-0.3,1.5-0.6,2.3-0.8C144.4,103.1,140.2,99.8,135.2,99.8z"/>
<path class="st0" d="M121.1,110.5c-6.1,0-11,5.1-11,11.4c0,4.3,2.3,7.9,5.6,9.9c-7.2,2.5-12.4,9.6-12.4,18h2.4
	c0-9.1,6.9-16.6,15.4-16.6c0.1,0,0.3,0,0.4,0c-0.2-0.8-0.3-1.6-0.4-2.4c-4.8,0-8.6-4-8.6-9s3.9-9,8.6-9c3,0,5.6,1.6,7.2,4
	c0.7-0.4,1.4-0.8,2.2-1C128.5,112.7,125,110.5,121.1,110.5z"/>
<path class="st0" d="M110.9,99.8c-6.1,0-11,5.1-11,11.4c0,4.3,2.3,8,5.6,9.9c-7.2,2.5-12.4,9.6-12.4,18h2.4c0-7.6,4.8-14,11.3-16
	c0-0.4,0-0.8,0-1.3c0-0.9,0.1-1.8,0.3-2.7c-2.8-1.5-4.8-4.5-4.8-8c0-5,3.9-9,8.6-9c3.5,0,6.5,2.2,7.9,5.3c0.7-0.1,1.5-0.2,2.2-0.2
	c0.1,0,0.2,0,0.3,0C119.8,102.9,115.7,99.8,110.9,99.8z"/>
<path class="st0" d="M140,115.9c0.8,0.3,1.5,0.6,2.2,1c1.6-2.4,4.2-4,7.2-4c4.8,0,8.6,4,8.6,9s-3.9,9-8.6,9
	c-0.1,0.8-0.2,1.6-0.4,2.4c0.1,0,0.3,0,0.4,0c8.5,0,15.4,7.4,15.4,16.6h2.4c0-8.4-5.2-15.6-12.4-18c3.4-2,5.6-5.7,5.6-9.9
	c0-6.3-4.9-11.4-11-11.4C145.5,110.5,142,112.7,140,115.9z"/>
<path class="st0" d="M149.1,107.3c0.1,0,0.2,0,0.3,0c0.8,0,1.5,0.1,2.2,0.2c1.4-3.1,4.4-5.3,7.9-5.3c4.8,0,8.6,4,8.6,9
	c0,3.5-1.9,6.6-4.8,8c0.2,0.9,0.3,1.8,0.3,2.7c0,0.4,0,0.8,0,1.3c6.5,1.9,11.3,8.4,11.3,16h2.4c0-8.4-5.2-15.6-12.4-18
	c3.3-2,5.6-5.7,5.6-9.9c0-6.3-5-11.4-11-11.4C154.8,99.8,150.7,102.9,149.1,107.3z"/>
<path class="st0" d="M140.7,139.5c3.3-2,5.6-5.7,5.6-9.9c0-6.3-5-11.4-11-11.4c-6.1,0-11,5.1-11,11.4c0,4.2,2.3,7.9,5.6,9.9
	c-7.2,2.5-12.4,9.6-12.4,18h2.4c0-9.1,6.9-16.6,15.4-16.6s15.4,7.4,15.4,16.6h2.4C153,149.2,147.8,142,140.7,139.5z M126.6,129.6
	c0-5,3.9-9,8.6-9c4.8,0,8.6,4,8.6,9s-3.9,9-8.6,9S126.6,134.6,126.6,129.6z"/>
<g>
	<path class="st1" d="M140.6,287.7c-1.8,0.1-3.7,0.1-5.5,0.1C60.5,287.8,0,223.4,0,143.9C0,66.6,57.2,3.6,128.9,0.1l6.4,10.5h-0.2
		C66,10.6,10,70.3,10,143.9c0,73.4,55.7,132.9,124.6,133.3L140.6,287.7z"/>
	<path class="st2" d="M270.2,143.9c0,77.5-57.5,140.7-129.6,143.8l-6.1-10.6c0.2,0,0.4,0,0.6,0c69.1,0,125.1-59.7,125.1-133.3
		c0-73.5-55.9-133.2-125-133.3L128.8,0c2.1-0.1,4.2-0.2,6.3-0.2C209.7,0,270.2,64.4,270.2,143.9z"/>
	<path class="st3" d="M150.3,35.4l-15,25.1c-0.1,0-0.1,0-0.2,0c-43.3,0-78.4,37.4-78.4,83.5s35.1,83.5,78.4,83.5l-15,24.8l14.4,25
		C65.7,277,9.9,217.5,9.9,144c0-73.6,56-133.3,125.1-133.3h0.2L150.3,35.4z"/>
	<path class="st4" d="M260.2,143.9c0,73.6-56,133.3-125.1,133.3c-0.2,0-0.4,0-0.6,0l-14.4-25l15-24.8c43.3,0,78.4-37.4,78.4-83.5
		c0-46-35-83.3-78.1-83.5l15-25.1l-15.1-24.7C204.2,10.8,260.2,70.4,260.2,143.9z"/>
</g>
<g>
	<path class="st0" d="M93.2,177c2.2,0,3.7,1.7,3.7,4.1s-1.5,4.1-3.7,4.1s-3.7-1.7-3.7-4.1S91,177,93.2,177z M93.2,183.2
		c0.6,0,1.4-0.4,1.4-2.2s-0.9-2.2-1.4-2.2s-1.4,0.4-1.4,2.2S92.7,183.2,93.2,183.2z"/>
	<path class="st0" d="M104.1,182c0,2.2-1.1,3.2-3.3,3.2s-3.3-1-3.3-3.2v-4.8h2.2v4.3c0,0.8,0,1.8,1.1,1.8s1.1-1,1.1-1.8v-4.3h2.2
		V182z"/>
	<path class="st0" d="M105,177.2h4.2c1.3,0,2.4,0.8,2.4,2.2c0,0.8-0.3,1.7-1.1,2c0.6,0.3,1,1,1.1,2c0,0.4,0,1.3,0.2,1.7h-2.2
		c-0.1-0.4-0.2-0.8-0.2-1.2c-0.1-0.7-0.1-1.5-1-1.5h-1.2v2.7H105V177.2z M107.2,180.6h1.2c0.4,0,1-0.1,1-0.8c0-0.5-0.3-0.8-1.1-0.8
		h-1L107.2,180.6L107.2,180.6z"/>
	<path class="st0" d="M119.9,180.1c0-0.3-0.2-1.2-1.2-1.2s-1.4,1.1-1.4,2.2c0,1.1,0.3,2.2,1.4,2.2c0.7,0,1-0.6,1.2-1.3h2.2
		c0,1.6-1.2,3.3-3.3,3.3c-2.3,0-3.7-1.8-3.7-4.1c0-2.5,1.4-4.1,3.7-4.1c2,0,3.1,1.1,3.3,3.1L119.9,180.1L119.9,180.1z"/>
	<path class="st0" d="M129.3,182c0,2.2-1.1,3.2-3.3,3.2s-3.3-1-3.3-3.2v-4.8h2.2v4.3c0,0.8,0,1.8,1.1,1.8s1.1-1,1.1-1.8v-4.3h2.2
		V182z"/>
	<path class="st0" d="M131.9,182.4c0,0.2,0,0.4,0.1,0.5c0.2,0.5,0.6,0.6,1.1,0.6c0.4,0,0.9-0.1,0.9-0.7c0-0.4-0.3-0.5-1.6-0.9
		c-1.1-0.4-2.4-0.7-2.4-2.3c0-1.8,1.4-2.6,2.9-2.6c1.6,0,3,0.6,3,2.6h-2.1c0-0.3-0.1-0.5-0.3-0.6s-0.4-0.2-0.7-0.2s-0.8,0.1-0.8,0.5
		c0,0.6,1.1,0.7,2.1,1s2,0.8,2,2.3c0,2-1.7,2.7-3.3,2.7c-0.8,0-3.2-0.3-3.2-2.8h2.3V182.4z"/>
	<path class="st0" d="M138.3,179.2h-2v-2h6.3v2h-2v5.8h-2.2v-5.8H138.3z"/>
	<path class="st0" d="M146.6,177c2.2,0,3.7,1.7,3.7,4.1s-1.5,4.1-3.7,4.1s-3.7-1.7-3.7-4.1S144.4,177,146.6,177z M146.6,183.2
		c0.6,0,1.4-0.4,1.4-2.2s-0.9-2.2-1.4-2.2s-1.4,0.4-1.4,2.2S146,183.2,146.6,183.2z"/>
	<path class="st0" d="M150.9,177.2h3.2l1,4.6l0,0l1-4.6h3.2v7.9h-2.1v-5l0,0l-1.3,5h-1.7l-1.3-5l0,0v5h-2.1v-7.9H150.9z"/>
	<path class="st0" d="M160.2,177.2h6v2h-3.8v1h3.4v1.9h-3.4v1h3.9v2h-6.1L160.2,177.2L160.2,177.2z"/>
	<path class="st0" d="M167.1,177.2h4.2c1.3,0,2.4,0.8,2.4,2.2c0,0.8-0.3,1.7-1.1,2c0.6,0.3,1,1,1.1,2c0,0.4,0,1.3,0.2,1.7h-2.2
		c-0.1-0.4-0.2-0.8-0.2-1.2c-0.1-0.7-0.1-1.5-1-1.5h-1.2v2.7h-2.2V177.2z M169.3,180.6h1.2c0.4,0,1-0.1,1-0.8c0-0.5-0.3-0.8-1.1-0.8
		h-1L169.3,180.6L169.3,180.6z"/>
	<path class="st0" d="M176.1,182.4c0,0.2,0,0.4,0.1,0.5c0.2,0.5,0.6,0.6,1.1,0.6c0.4,0,0.9-0.1,0.9-0.7c0-0.4-0.3-0.5-1.6-0.9
		c-1.1-0.4-2.4-0.7-2.4-2.3c0-1.8,1.4-2.6,2.9-2.6c1.6,0,3,0.6,3,2.6H178c0-0.3-0.1-0.5-0.3-0.6s-0.4-0.2-0.7-0.2s-0.8,0.1-0.8,0.5
		c0,0.6,1.1,0.7,2.1,1s2,0.8,2,2.3c0,2-1.7,2.7-3.3,2.7c-0.8,0-3.2-0.3-3.2-2.8h2.3V182.4z"/>
</g>
</svg>
